<svg aria-hidden="true" style="width:0;height:0;position:absolute;overflow:hidden" xmlns="http://www.w3.org/2000/svg"><defs><symbol id="icon-user" viewBox="0 0 32 32"><path d="M18 22.082v-1.649c2.203-1.241 4-4.337 4-7.432 0-4.971 0-9-6-9s-6 4.029-6 9c0 3.096 1.797 6.191 4 7.432v1.649C7.216 22.637 2 25.97 2 30h28c0-4.03-5.216-7.364-12-7.918z"/></symbol><symbol id="icon-user-check" viewBox="0 0 32 32"><path d="m30 19-9 9-3-3-2 2 5 5 11-11z"/><path d="M14 24h10v-3.598c-2.101-1.225-4.885-2.066-8-2.321v-1.649c2.203-1.242 4-4.337 4-7.432 0-4.971 0-9-6-9S8 4.029 8 9c0 3.096 1.797 6.191 4 7.432v1.649c-6.784.555-12 3.888-12 7.918h14v-2z"/></symbol><symbol id="icon-watched" viewBox="0 0 32 32"><path d="M22.16 8.28a1.33 1.33 0 0 0-1.878.224l-.002.003-9.333 12-4.573-5.573a1.333 1.333 0 1 0-2.078 1.668l-.002-.002 5.56 6.907c.246.302.619.493 1.035.493h.005l.059.001a1.33 1.33 0 0 0 1.045-.505l.002-.003L22.44 10.16a1.33 1.33 0 0 0-.277-1.877l-.004-.003zM28.827 8.28a1.33 1.33 0 0 0-1.878.224l-.002.003-9.333 12-.813-1-1.68 2.16 1.467 1.827c.246.302.619.493 1.035.493h.005a1.33 1.33 0 0 0 1.038-.504l.002-.003 10.44-13.333a1.335 1.335 0 0 0-.276-1.865l-.004-.003z"/><path d="m11.613 17.413 1.72-2.16-.267-.32a1.332 1.332 0 0 0-1.909-.265l.003-.002a1.33 1.33 0 0 0-.198 1.882l-.002-.002z"/></symbol><symbol id="icon-queue" viewBox="0 0 32 32"><path d="M16 24.708c-3.598 0-7.471-1.407-11.2-4.07-2.787-1.99-4.508-3.962-4.579-4.045a.906.906 0 0 1 0-1.185c.072-.083 1.792-2.055 4.579-4.045 3.729-2.662 7.601-4.07 11.2-4.07s7.471 1.407 11.2 4.07c2.787 1.99 4.508 3.962 4.579 4.045a.904.904 0 0 1 0 1.185c-.072.083-1.792 2.055-4.579 4.045-3.728 2.663-7.601 4.07-11.2 4.07zM2.146 16a28.598 28.598 0 0 0 3.742 3.19c2.377 1.691 6.06 3.707 10.112 3.707s7.736-2.016 10.112-3.707A28.598 28.598 0 0 0 29.854 16a28.598 28.598 0 0 0-3.742-3.19C23.735 11.119 20.052 9.103 16 9.103S8.264 11.119 5.888 12.81A28.598 28.598 0 0 0 2.146 16z"/><path d="M16 21.61c-3.094 0-5.61-2.517-5.61-5.61s2.517-5.61 5.61-5.61c1.361 0 2.673.493 3.695 1.389a.904.904 0 1 1-1.193 1.361 3.794 3.794 0 0 0-2.503-.941c-2.096 0-3.801 1.705-3.801 3.801s1.705 3.801 3.801 3.801A3.805 3.805 0 0 0 19.8 16a.905.905 0 1 1 1.81 0A5.617 5.617 0 0 1 16 21.61z"/><path d="M16 17.81c-.998 0-1.81-.812-1.81-1.81s.812-1.81 1.81-1.81 1.81.812 1.81 1.81-.812 1.81-1.81 1.81z"/></symbol></defs></svg>