<svg aria-hidden="true" style="width:0;height:0;position:absolute;overflow:hidden" xmlns="http://www.w3.org/2000/svg"><defs><symbol id="icon-search" viewBox="0 0 32 32"><path fill="none" stroke="#fff" style="stroke:var(--color1,#fff)" stroke-linejoin="round" stroke-linecap="round" stroke-width="2.667" d="M14.667 25.333c5.891 0 10.667-4.776 10.667-10.667S20.558 3.999 14.667 3.999 4 8.775 4 14.666s4.776 10.667 10.667 10.667zM28 28.001l-5.8-5.8"/></symbol><symbol id="icon-logo" viewBox="0 0 32 32"><path fill="none" stroke="#fff" style="stroke:var(--color1,#fff)" stroke-linejoin="round" stroke-linecap="round" stroke-width="2.667" d="M26.427 2.667H5.574a2.907 2.907 0 0 0-2.907 2.907v20.853a2.907 2.907 0 0 0 2.907 2.907h20.853a2.907 2.907 0 0 0 2.907-2.907V5.574a2.907 2.907 0 0 0-2.907-2.907zM9.333 2.667v26.667M22.667 2.667v26.667M2.667 16h26.667M2.667 9.333h6.667M2.667 22.667h6.667M22.667 22.667h6.667M22.667 9.333h6.667"/></symbol><symbol id="icon-close" viewBox="0 0 32 32"><path d="m8.507 8.533-.746.748L14.48 16l-6.693 6.693.759.761.761.759L16 17.52l6.693 6.693.761-.759.759-.761L17.52 16l6.72-6.72-.761-.759-.759-.761L16 14.48l-3.347-3.347c-1.84-1.84-3.359-3.346-3.374-3.346s-.363.336-.772.747z"/></symbol><symbol id="icon-heart" viewBox="0 0 34 32"><path fill="#ff6b08" style="fill:var(--color1,#ff6b08)" d="M8.672.037c-.64.064-1.191.16-1.75.308C3.193 1.327.51 4.483.059 8.416c-.222 1.937.194 4.118 1.172 6.149 1.659 3.451 4.702 6.826 11.951 13.26a89.77 89.77 0 0 1 2.858 2.663l1.191 1.186 1.221-1.211a82.475 82.475 0 0 1 2.799-2.614c4.874-4.32 7.527-6.949 9.467-9.378 2.223-2.779 3.399-5.312 3.682-7.916.428-3.914-1.526-7.682-4.889-9.435a7.849 7.849 0 0 0-1.743-.713l-.057-.013a9.544 9.544 0 0 0-2.702-.381c-.784 0-1.546.092-2.276.267l.066-.013a9.715 9.715 0 0 0-2.52.944l.051-.025a9.8 9.8 0 0 0-2.455 1.768l.001-.001-.647.625-.647-.625c-.363-.349-.752-.68-1.159-.988l-.032-.024A12.661 12.661 0 0 0 12.953.647l-.087-.031C11.616.153 9.907-.083 8.672.038z"/></symbol><symbol id="icon-line" viewBox="0 0 363 32"><path d="M0 0h362.667v32H0V0z"/></symbol></defs></svg>