<svg aria-hidden="true" style="width:0;height:0;position:absolute;overflow:hidden" xmlns="http://www.w3.org/2000/svg"><defs><symbol id="icon-search" viewBox="0 0 32 32"><path fill="none" stroke="#fff" style="stroke:var(--color1,#fff)" stroke-linejoin="round" stroke-linecap="round" stroke-width="2.667" d="M14.667 25.333c5.891 0 10.667-4.776 10.667-10.667S20.558 3.999 14.667 3.999 4 8.775 4 14.666s4.776 10.667 10.667 10.667zM28 28.001l-5.8-5.8"/></symbol><symbol id="icon-logo" viewBox="0 0 32 32"><path fill="none" stroke="#fff" style="stroke:var(--color1,#fff)" stroke-linejoin="round" stroke-linecap="round" stroke-width="2.667" d="M26.427 2.667H5.574a2.907 2.907 0 0 0-2.907 2.907v20.853a2.907 2.907 0 0 0 2.907 2.907h20.853a2.907 2.907 0 0 0 2.907-2.907V5.574a2.907 2.907 0 0 0-2.907-2.907zM9.333 2.667v26.667M22.667 2.667v26.667M2.667 16h26.667M2.667 9.333h6.667M2.667 22.667h6.667M22.667 22.667h6.667M22.667 9.333h6.667"/></symbol><symbol id="icon-close" viewBox="0 0 32 32"><path d="m8.507 8.533-.746.748L14.48 16l-6.693 6.693.759.761.761.759L16 17.52l6.693 6.693.761-.759.759-.761L17.52 16l6.72-6.72-.761-.759-.759-.761L16 14.48l-3.347-3.347c-1.84-1.84-3.359-3.346-3.374-3.346s-.363.336-.772.747z"/></symbol><symbol id="icon-heart" viewBox="0 0 34 32"><path fill="#ff6b08" style="fill:var(--color1,#ff6b08)" d="M8.672.037c-.64.064-1.191.16-1.75.308C3.193 1.327.51 4.483.059 8.416c-.222 1.937.194 4.118 1.172 6.149 1.659 3.451 4.702 6.826 11.951 13.26a89.77 89.77 0 0 1 2.858 2.663l1.191 1.186 1.221-1.211a82.475 82.475 0 0 1 2.799-2.614c4.874-4.32 7.527-6.949 9.467-9.378 2.223-2.779 3.399-5.312 3.682-7.916.428-3.914-1.526-7.682-4.889-9.435a7.849 7.849 0 0 0-1.743-.713l-.057-.013a9.544 9.544 0 0 0-2.702-.381c-.784 0-1.546.092-2.276.267l.066-.013a9.715 9.715 0 0 0-2.52.944l.051-.025a9.8 9.8 0 0 0-2.455 1.768l.001-.001-.647.625-.647-.625c-.363-.349-.752-.68-1.159-.988l-.032-.024A12.661 12.661 0 0 0 12.953.647l-.087-.031C11.616.153 9.907-.083 8.672.038z"/></symbol><symbol id="icon-line" viewBox="0 0 363 32"><path d="M0 0h362.667v32H0V0z"/></symbol><symbol id="icon-github-icon" viewBox="0 0 32 32"><path d="M0 16c0-4.417 1.563-8.188 4.688-11.313S11.584-.001 16.001-.001c4.417 0 8.187 1.563 11.313 4.688S32.002 11.583 32.002 16s-1.563 8.188-4.688 11.313-6.896 4.688-11.313 4.688-8.188-1.563-11.313-4.688S0 20.417 0 16zm1.75 0c0 3.917 1.396 7.271 4.188 10.063s6.146 4.188 10.063 4.188c3.917 0 7.271-1.396 10.063-4.188S30.252 19.917 30.252 16c0-3.917-1.396-7.271-4.188-10.063s-6.146-4.188-10.063-4.188c-3.917 0-7.271 1.396-10.063 4.188S1.75 12.083 1.75 16zm4.5 3.437c-.083-.083-.083-.167 0-.25.167-.167.375-.229.625-.188s.396.083.438.125c.292.125.615.406.969.844s.635.74.844.906c1 .833 2.021.896 3.062.188.083-.292.219-.542.406-.75s.365-.354.531-.438c.167-.083.458-.208.875-.375-1.375-.125-2.49-.365-3.344-.719s-1.531-.802-2.031-1.344c-.667-.75-1.073-1.729-1.219-2.938s-.052-2.313.281-3.313a5.522 5.522 0 0 1 1.062-1.688c-.333-1.042-.271-2.229.188-3.563 1.333.083 2.542.542 3.625 1.375 2.083-.542 4.25-.563 6.5-.063.292-.208.74-.469 1.344-.781s1.365-.49 2.281-.531c.167.458.281 1 .344 1.625s.031 1.208-.094 1.75c.958 1 1.458 2.333 1.5 4 0 1.333-.229 2.438-.687 3.313s-1.271 1.604-2.438 2.187c-.792.375-1.833.604-3.125.688.583.292 1.01.594 1.281.906s.448.802.531 1.469v1.969l.062 1.906c.125.208.271.385.438.531s.313.25.438.313.167.156.125.281-.208.188-.5.188c-.708 0-1.271-.25-1.688-.75a1.43 1.43 0 0 1-.188-.75v-3c0-.333-.083-.573-.25-.719s-.333-.24-.5-.281v3.938c0 .708.083 1.167.25 1.375s.271.417.313.625c.042.042.01.073-.094.094s-.281-.01-.531-.094c-.542-.125-.917-.406-1.125-.844s-.313-.906-.313-1.406v-3.875h-.813v3.875c0 .5-.104.979-.313 1.438-.292.583-.833.896-1.625.938-.125-.042-.188-.083-.188-.125.042-.042.167-.25.375-.625a3.66 3.66 0 0 0 .25-1.375v-3.938c-.167.042-.323.135-.469.281s-.219.385-.219.719v3c0 .292-.063.542-.188.75-.375.5-.938.75-1.687.75-.292 0-.458-.063-.5-.188-.042-.083-.031-.156.031-.219s.156-.135.281-.219c.125-.083.208-.146.25-.188.167-.125.292-.292.375-.5.125-.167.156-.604.094-1.313s-.073-1.167-.031-1.375c-1.083.375-2.188.187-3.313-.563-.333-.333-.667-.813-1-1.438-.25-.458-.75-1-1.5-1.625z"/></symbol><symbol id="icon-circle-up" viewBox="0 0 32 32"><path d="M0 16c0 8.836 7.164 16 16 16s16-7.164 16-16S24.836 0 16 0 0 7.164 0 16zm29 0c0 7.18-5.82 13-13 13S3 23.18 3 16 8.82 3 16 3s13 5.82 13 13z"/><path d="m22.086 20.914 2.828-2.828L16 9.172l-8.914 8.914 2.828 2.828L16 14.828z"/></symbol><symbol id="icon-moon" viewBox="0 0 32 32"><path d="M21.866 21.447c-3.117 3.12-8.193 3.12-11.313 0s-3.12-8.195 0-11.314a7.952 7.952 0 0 1 2.989-1.863.998.998 0 0 1 1.039.237.995.995 0 0 1 .237 1.039c-.784 2.211-.25 4.604 1.391 6.245 1.638 1.639 4.031 2.172 6.245 1.391a.996.996 0 0 1 1.039.237.995.995 0 0 1 .236 1.039 7.907 7.907 0 0 1-1.863 2.989zm-9.899-9.9a6.007 6.007 0 0 0 0 8.486c2.5 2.501 6.758 2.276 8.937-.51-2.247.141-4.461-.671-6.109-2.318s-2.458-3.861-2.318-6.108c-.18.141-.35.29-.51.451z"/></symbol><symbol id="icon-sun" viewBox="0 0 24 24"><path d="M18 12c0-1.657-.673-3.158-1.757-4.243S13.657 6 12 6s-3.158.673-4.243 1.757S6 10.343 6 12s.673 3.158 1.757 4.243S10.343 18 12 18s3.158-.673 4.243-1.757S18 13.657 18 12zm-2 0c0 1.105-.447 2.103-1.172 2.828S13.105 16 12 16s-2.103-.447-2.828-1.172S8 13.105 8 12s.447-2.103 1.172-2.828S10.895 8 12 8s2.103.447 2.828 1.172S16 10.895 16 12zM11 1v2a1 1 0 0 0 2 0V1a1 1 0 0 0-2 0zm0 20v2a1 1 0 0 0 2 0v-2a1 1 0 0 0-2 0zM3.513 4.927l1.42 1.42a.999.999 0 1 0 1.414-1.414l-1.42-1.42a.999.999 0 1 0-1.414 1.414zm14.14 14.14 1.42 1.42a.999.999 0 1 0 1.414-1.414l-1.42-1.42a.999.999 0 1 0-1.414 1.414zM1 13h2a1 1 0 0 0 0-2H1a1 1 0 0 0 0 2zm20 0h2a1 1 0 0 0 0-2h-2a1 1 0 0 0 0 2zM4.927 20.487l1.42-1.42a.999.999 0 1 0-1.414-1.414l-1.42 1.42a.999.999 0 1 0 1.414 1.414zm14.14-14.14 1.42-1.42a.999.999 0 1 0-1.414-1.414l-1.42 1.42a.999.999 0 1 0 1.414 1.414z"/></symbol><symbol id="icon-youtube" viewBox="0 0 32 32"><path d="M31.681 9.6s-.313-2.206-1.275-3.175C29.187 5.15 27.825 5.144 27.2 5.069c-4.475-.325-11.194-.325-11.194-.325h-.012s-6.719 0-11.194.325c-.625.075-1.987.081-3.206 1.356C.631 7.394.325 9.6.325 9.6s-.319 2.588-.319 5.181v2.425c0 2.587.319 5.181.319 5.181s.313 2.206 1.269 3.175c1.219 1.275 2.819 1.231 3.531 1.369 2.563.244 10.881.319 10.881.319s6.725-.012 11.2-.331c.625-.075 1.988-.081 3.206-1.356.962-.969 1.275-3.175 1.275-3.175s.319-2.587.319-5.181v-2.425c-.006-2.588-.325-5.181-.325-5.181zM12.694 20.15v-8.994l8.644 4.513-8.644 4.481z"/></symbol><symbol id="icon-youtube2" viewBox="0 0 80 32"><path d="M10.75 5.294a.449.449 0 0 0 .012-.056l.033-.236-1.48-.008c-1.337-.008-1.746 0-1.783.034-.018.016-.479 1.77-1.302 4.946-.392 1.515-.723 2.725-.734 2.689s-.481-1.766-1.044-3.843c-.563-2.078-1.034-3.789-1.048-3.803-.019-.019-1.812-.028-3.263-.016-.21.002-.327-.41 1.876 6.598.305.97.762 2.344 1.015 3.052.292.817.5 1.448.642 1.974.251 1.002.26 1.63.205 2.363-.063.847-.073 6.826-.011 6.926.047.077 2.851.112 3.116.04.042-.012.071-.053.09-.279.066-.194.071-.968.071-4.18v-4.103l.179-.566c.117-.37.413-1.344.656-2.163s.538-1.801.654-2.18c1.057-3.447 2.067-6.838 2.094-7.032l.022-.158zM26.441 10.27l-.001.214h-.033l-.019 5.906-.018 5.726-.458.467c-.513.522-.925.722-1.297.629-.405-.102-.395.056-.429-6.712l-.031-6.23h-2.947v.214h-.034v6.759c0 7.242 0 7.237.367 7.965.293.579.719.861 1.45.958.962.128 2-.308 2.962-1.244l.418-.407v.701c0 .606.017.706.127.737.18.05 2.412.053 2.653.004l.2-.041v-.207l.034-.007V10.23l-2.944.039zM18.965 13.323c-.279-1.198-.802-2.004-1.664-2.561-1.353-.875-2.897-.967-4.331-.259-1.045.516-1.717 1.372-2.065 2.628-.041.15-.072.275-.095.463-.088.443-.099 1.105-.122 4.186-.035 4.748.019 5.313.614 6.391.583 1.058 1.794 1.833 3.112 1.993.397.048 1.201-.027 1.663-.155 1.051-.291 2.058-1.122 2.504-2.065.192-.407.309-.691.379-1.208.13-.707.14-1.849.14-4.762 0-3.715-.012-4.121-.136-4.651zM15.604 23c-.247.188-.679.27-1.031.195-.271-.058-.636-.482-.748-.869-.14-.482-.151-7.187-.03-8.502.199-.658.756-1.002 1.364-.838.474.128.716.424.854 1.046.103.461.115 1.035.093 4.414-.014 2.241-.022 3.336-.096 3.924-.074.371-.197.47-.407.63zM71.887 16.692h1.424l-.023-1.29c-.022-1.183-.039-1.319-.198-1.64-.249-.507-.617-.731-1.201-.731-.701 0-1.146.339-1.356 1.036-.089.296-.183 2.334-.116 2.51.038.098.241.116 1.469.116zM62.369 13.757c-.19-.383-.543-.571-.954-.556-.319.011-.674.146-1.015.407l-.254.193v9.269l.254.193c.576.439 1.209.532 1.644.241.172-.115.285-.274.372-.527.114-.329.124-.75.109-4.649-.015-4.064-.024-4.303-.157-4.57z"/><path d="M80.027 9.582c-.284-3.401-.509-4.505-1.211-5.923-.929-1.878-2.272-2.868-4.184-3.086-1.478-.168-7.041-.405-12.189-.52-8.912-.198-23.564.183-25.436.662-.865.221-1.513.597-2.188 1.269-1.183 1.177-1.887 2.865-2.17 5.2-.647 5.331-.66 11.773-.037 17.297.268 2.376.82 3.92 1.857 5.192.647.794 1.761 1.469 2.758 1.67.7.141 4.201.337 9.3.521.76.027 2.771.074 4.47.105 3.541.063 10.051.026 13.772-.079 2.504-.07 7.069-.255 7.922-.321.24-.019.796-.054 1.236-.079 1.477-.083 2.417-.393 3.3-1.086 1.142-.897 2.027-2.556 2.4-4.501.354-1.84.59-5.118.638-8.839.04-3.109-.013-4.787-.238-7.482zM44.54 8.35l-1.656.02-.073 17.661-1.435.018c-1.11.015-1.447-.001-1.474-.073-.019-.051-.042-4.032-.052-8.849l-.018-8.758-3.234-.041v-2.76l9.557.039.041 2.721-1.656.02zm10.154 10.122v7.595h-2.616v-.799c0-.601-.023-.799-.093-.799-.051 0-.288.198-.527.441-.517.526-1.13.949-1.653 1.145-1.083.405-2.112.169-2.551-.586-.401-.691-.409-.845-.409-8.01v-6.58h2.614l.02 6.196c.019 6.088.022 6.2.168 6.448.193.329.488.417.956.288.276-.076.464-.21.911-.654l.563-.561V10.879h2.616v7.595zm10.205 6.51c-.23.513-.744 1.016-1.165 1.14-1.099.324-1.98.06-2.998-.897-.316-.297-.61-.538-.654-.538-.053 0-.082.233-.082.69v.69h-2.616V5.572H60v3.343c0 1.839.025 3.343.054 3.343s.306-.244.613-.541c.707-.683 1.298-.981 2.049-1.038 1.338-.101 2.135.587 2.501 2.16.114.491.125 1.051.125 5.596 0 5.537-.001 5.56-.443 6.546zm11.069-3.039c-.023.57-.092 1.223-.154 1.454-.364 1.349-1.332 2.304-2.732 2.696-1.885.527-3.96-.337-4.788-1.994-.465-.93-.481-1.116-.481-5.662 0-3.707.013-4.162.132-4.667.336-1.431 1.168-2.357 2.578-2.871a3.917 3.917 0 0 1 1.261-.234c1.521-.031 3.031.787 3.663 2.119.427.899.48 1.283.522 3.816l.039 2.271-5.578.039-.02 1.526c-.029 2.153.116 2.815.697 3.207.489.329 1.24.305 1.649-.055.383-.337.491-.698.529-1.753l.034-.927h2.694l-.043 1.036z"/></symbol></defs></svg>