<svg aria-hidden="true" style="width:0;height:0;position:absolute;overflow:hidden" xmlns="http://www.w3.org/2000/svg"><defs><symbol id="icon-search" viewBox="0 0 32 32"><path fill="none" stroke="#fff" style="stroke:var(--color1,#fff)" stroke-linejoin="round" stroke-linecap="round" stroke-width="2.667" d="M14.667 25.333c5.891 0 10.667-4.776 10.667-10.667S20.558 3.999 14.667 3.999 4 8.775 4 14.666s4.776 10.667 10.667 10.667zM28 28.001l-5.8-5.8"/></symbol><symbol id="icon-logo" viewBox="0 0 32 32"><path fill="none" stroke="#fff" style="stroke:var(--color1,#fff)" stroke-linejoin="round" stroke-linecap="round" stroke-width="2.667" d="M26.427 2.667H5.574a2.907 2.907 0 0 0-2.907 2.907v20.853a2.907 2.907 0 0 0 2.907 2.907h20.853a2.907 2.907 0 0 0 2.907-2.907V5.574a2.907 2.907 0 0 0-2.907-2.907zM9.333 2.667v26.667M22.667 2.667v26.667M2.667 16h26.667M2.667 9.333h6.667M2.667 22.667h6.667M22.667 22.667h6.667M22.667 9.333h6.667"/></symbol><symbol id="icon-close" viewBox="0 0 32 32"><path d="m8.507 8.533-.746.748L14.48 16l-6.693 6.693.759.761.761.759L16 17.52l6.693 6.693.761-.759.759-.761L17.52 16l6.72-6.72-.761-.759-.759-.761L16 14.48l-3.347-3.347c-1.84-1.84-3.359-3.346-3.374-3.346s-.363.336-.772.747z"/></symbol><symbol id="icon-heart" viewBox="0 0 34 32"><path fill="#ff6b08" style="fill:var(--color1,#ff6b08)" d="M8.672.037c-.64.064-1.191.16-1.75.308C3.193 1.327.51 4.483.059 8.416c-.222 1.937.194 4.118 1.172 6.149 1.659 3.451 4.702 6.826 11.951 13.26a89.77 89.77 0 0 1 2.858 2.663l1.191 1.186 1.221-1.211a82.475 82.475 0 0 1 2.799-2.614c4.874-4.32 7.527-6.949 9.467-9.378 2.223-2.779 3.399-5.312 3.682-7.916.428-3.914-1.526-7.682-4.889-9.435a7.849 7.849 0 0 0-1.743-.713l-.057-.013a9.544 9.544 0 0 0-2.702-.381c-.784 0-1.546.092-2.276.267l.066-.013a9.715 9.715 0 0 0-2.52.944l.051-.025a9.8 9.8 0 0 0-2.455 1.768l.001-.001-.647.625-.647-.625c-.363-.349-.752-.68-1.159-.988l-.032-.024A12.661 12.661 0 0 0 12.953.647l-.087-.031C11.616.153 9.907-.083 8.672.038z"/></symbol><symbol id="icon-line" viewBox="0 0 363 32"><path d="M0 0h362.667v32H0V0z"/></symbol><symbol id="icon-github-icon" viewBox="0 0 32 32"><path d="M0 16c0-4.417 1.563-8.188 4.688-11.313S11.584-.001 16.001-.001c4.417 0 8.187 1.563 11.313 4.688S32.002 11.583 32.002 16s-1.563 8.188-4.688 11.313-6.896 4.688-11.313 4.688-8.188-1.563-11.313-4.688S0 20.417 0 16zm1.75 0c0 3.917 1.396 7.271 4.188 10.063s6.146 4.188 10.063 4.188c3.917 0 7.271-1.396 10.063-4.188S30.252 19.917 30.252 16c0-3.917-1.396-7.271-4.188-10.063s-6.146-4.188-10.063-4.188c-3.917 0-7.271 1.396-10.063 4.188S1.75 12.083 1.75 16zm4.5 3.437c-.083-.083-.083-.167 0-.25.167-.167.375-.229.625-.188s.396.083.438.125c.292.125.615.406.969.844s.635.74.844.906c1 .833 2.021.896 3.062.188.083-.292.219-.542.406-.75s.365-.354.531-.438c.167-.083.458-.208.875-.375-1.375-.125-2.49-.365-3.344-.719s-1.531-.802-2.031-1.344c-.667-.75-1.073-1.729-1.219-2.938s-.052-2.313.281-3.313a5.522 5.522 0 0 1 1.062-1.688c-.333-1.042-.271-2.229.188-3.563 1.333.083 2.542.542 3.625 1.375 2.083-.542 4.25-.563 6.5-.063.292-.208.74-.469 1.344-.781s1.365-.49 2.281-.531c.167.458.281 1 .344 1.625s.031 1.208-.094 1.75c.958 1 1.458 2.333 1.5 4 0 1.333-.229 2.438-.687 3.313s-1.271 1.604-2.438 2.187c-.792.375-1.833.604-3.125.688.583.292 1.01.594 1.281.906s.448.802.531 1.469v1.969l.062 1.906c.125.208.271.385.438.531s.313.25.438.313.167.156.125.281-.208.188-.5.188c-.708 0-1.271-.25-1.688-.75a1.43 1.43 0 0 1-.188-.75v-3c0-.333-.083-.573-.25-.719s-.333-.24-.5-.281v3.938c0 .708.083 1.167.25 1.375s.271.417.313.625c.042.042.01.073-.094.094s-.281-.01-.531-.094c-.542-.125-.917-.406-1.125-.844s-.313-.906-.313-1.406v-3.875h-.813v3.875c0 .5-.104.979-.313 1.438-.292.583-.833.896-1.625.938-.125-.042-.188-.083-.188-.125.042-.042.167-.25.375-.625a3.66 3.66 0 0 0 .25-1.375v-3.938c-.167.042-.323.135-.469.281s-.219.385-.219.719v3c0 .292-.063.542-.188.75-.375.5-.938.75-1.687.75-.292 0-.458-.063-.5-.188-.042-.083-.031-.156.031-.219s.156-.135.281-.219c.125-.083.208-.146.25-.188.167-.125.292-.292.375-.5.125-.167.156-.604.094-1.313s-.073-1.167-.031-1.375c-1.083.375-2.188.187-3.313-.563-.333-.333-.667-.813-1-1.438-.25-.458-.75-1-1.5-1.625z"/></symbol><symbol id="icon-circle-up" viewBox="0 0 32 32"><path d="M0 16c0 8.836 7.164 16 16 16s16-7.164 16-16S24.836 0 16 0 0 7.164 0 16zm29 0c0 7.18-5.82 13-13 13S3 23.18 3 16 8.82 3 16 3s13 5.82 13 13z"/><path d="m22.086 20.914 2.828-2.828L16 9.172l-8.914 8.914 2.828 2.828L16 14.828z"/></symbol></defs></svg>