<svg aria-hidden="true" style="position: absolute; width: 0; height: 0; overflow: hidden;" version="1.1" xmlns="http://www.w3.org/2000/svg" xmlns:xlink="http://www.w3.org/1999/xlink">
<defs>
<symbol id="icon-search" viewBox="0 0 32 32">
<path fill="none" stroke="#fff" style="stroke: var(--color1, #fff)" stroke-linejoin="round" stroke-linecap="round" stroke-miterlimit="4" stroke-width="2.6667" d="M14.667 25.333c5.891 0 10.667-4.776 10.667-10.667s-4.776-10.667-10.667-10.667c-5.891 0-10.667 4.776-10.667 10.667s4.776 10.667 10.667 10.667z"></path>
<path fill="none" stroke="#fff" style="stroke: var(--color1, #fff)" stroke-linejoin="round" stroke-linecap="round" stroke-miterlimit="4" stroke-width="2.6667" d="M28 28.001l-5.8-5.8"></path>
</symbol>
<symbol id="icon-logo" viewBox="0 0 32 32">
<path fill="none" stroke="#fff" style="stroke: var(--color1, #fff)" stroke-linejoin="round" stroke-linecap="round" stroke-miterlimit="4" stroke-width="2.6667" d="M26.427 2.667h-20.853c-1.605 0-2.907 1.301-2.907 2.907v20.853c0 1.605 1.301 2.907 2.907 2.907h20.853c1.605 0 2.907-1.301 2.907-2.907v-20.853c0-1.605-1.301-2.907-2.907-2.907z"></path>
<path fill="none" stroke="#fff" style="stroke: var(--color1, #fff)" stroke-linejoin="round" stroke-linecap="round" stroke-miterlimit="4" stroke-width="2.6667" d="M9.333 2.667v26.667"></path>
<path fill="none" stroke="#fff" style="stroke: var(--color1, #fff)" stroke-linejoin="round" stroke-linecap="round" stroke-miterlimit="4" stroke-width="2.6667" d="M22.667 2.667v26.667"></path>
<path fill="none" stroke="#fff" style="stroke: var(--color1, #fff)" stroke-linejoin="round" stroke-linecap="round" stroke-miterlimit="4" stroke-width="2.6667" d="M2.667 16h26.667"></path>
<path fill="none" stroke="#fff" style="stroke: var(--color1, #fff)" stroke-linejoin="round" stroke-linecap="round" stroke-miterlimit="4" stroke-width="2.6667" d="M2.667 9.333h6.667"></path>
<path fill="none" stroke="#fff" style="stroke: var(--color1, #fff)" stroke-linejoin="round" stroke-linecap="round" stroke-miterlimit="4" stroke-width="2.6667" d="M2.667 22.667h6.667"></path>
<path fill="none" stroke="#fff" style="stroke: var(--color1, #fff)" stroke-linejoin="round" stroke-linecap="round" stroke-miterlimit="4" stroke-width="2.6667" d="M22.667 22.667h6.667"></path>
<path fill="none" stroke="#fff" style="stroke: var(--color1, #fff)" stroke-linejoin="round" stroke-linecap="round" stroke-miterlimit="4" stroke-width="2.6667" d="M22.667 9.333h6.667"></path>
</symbol>
<symbol id="icon-close" viewBox="0 0 32 32">
<path d="M8.507 8.533l-0.746 0.748 6.719 6.719-6.693 6.693 0.759 0.761 0.761 0.759 6.693-6.693 6.693 6.693 0.761-0.759 0.759-0.761-6.693-6.693 6.72-6.72-0.761-0.759-0.759-0.761-6.72 6.72-3.347-3.347c-1.84-1.84-3.359-3.346-3.374-3.346s-0.363 0.336-0.772 0.747z"></path>
</symbol>
<symbol id="icon-heart" viewBox="0 0 34 32">
<path fill="#ff6b08" style="fill: var(--color1, #ff6b08)" d="M8.672 0.037c-0.64 0.064-1.191 0.16-1.75 0.308-3.729 0.982-6.412 4.138-6.863 8.071-0.222 1.937 0.194 4.118 1.172 6.149 1.659 3.451 4.702 6.826 11.951 13.26 0.916 0.815 2.203 2.014 2.858 2.663l1.191 1.186 1.221-1.211c0.672-0.667 1.93-1.844 2.799-2.614 4.874-4.32 7.527-6.949 9.467-9.378 2.223-2.779 3.399-5.312 3.682-7.916 0.428-3.914-1.526-7.682-4.889-9.435-0.516-0.291-1.114-0.539-1.743-0.713l-0.057-0.013c-0.809-0.242-1.739-0.381-2.702-0.381-0.784 0-1.546 0.092-2.276 0.267l0.066-0.013c-0.934 0.213-1.758 0.529-2.52 0.944l0.051-0.025c-0.943 0.483-1.752 1.072-2.455 1.768l0.001-0.001-0.647 0.625-0.647-0.625c-0.363-0.349-0.752-0.68-1.159-0.988l-0.032-0.024c-0.727-0.498-1.559-0.943-2.438-1.294l-0.087-0.031c-1.25-0.463-2.959-0.699-4.194-0.578z"></path>
</symbol>
<symbol id="icon-line" viewBox="0 0 363 32">
<path d="M0 0h362.667v32h-362.667v-32z"></path>
</symbol>
<symbol id="icon-github-icon" viewBox="0 0 32 32">
<path d="M0 16c0-4.417 1.563-8.188 4.688-11.313s6.896-4.688 11.313-4.688c4.417 0 8.187 1.563 11.313 4.688s4.688 6.896 4.688 11.313-1.563 8.188-4.688 11.313c-3.125 3.125-6.896 4.688-11.313 4.688s-8.188-1.563-11.313-4.688c-3.125-3.125-4.688-6.896-4.688-11.313zM1.75 16c0 3.917 1.396 7.271 4.188 10.063s6.146 4.188 10.063 4.188c3.917 0 7.271-1.396 10.063-4.188s4.188-6.146 4.188-10.063c0-3.917-1.396-7.271-4.188-10.063s-6.146-4.188-10.063-4.188c-3.917 0-7.271 1.396-10.063 4.188s-4.188 6.146-4.188 10.063zM6.25 19.437c-0.083-0.083-0.083-0.167 0-0.25 0.167-0.167 0.375-0.229 0.625-0.188s0.396 0.083 0.438 0.125c0.292 0.125 0.615 0.406 0.969 0.844s0.635 0.74 0.844 0.906c1 0.833 2.021 0.896 3.062 0.188 0.083-0.292 0.219-0.542 0.406-0.75s0.365-0.354 0.531-0.438c0.167-0.083 0.458-0.208 0.875-0.375-1.375-0.125-2.49-0.365-3.344-0.719s-1.531-0.802-2.031-1.344c-0.667-0.75-1.073-1.729-1.219-2.938s-0.052-2.313 0.281-3.313c0.25-0.625 0.604-1.187 1.062-1.688-0.333-1.042-0.271-2.229 0.188-3.563 1.333 0.083 2.542 0.542 3.625 1.375 2.083-0.542 4.25-0.563 6.5-0.063 0.292-0.208 0.74-0.469 1.344-0.781s1.365-0.49 2.281-0.531c0.167 0.458 0.281 1 0.344 1.625s0.031 1.208-0.094 1.75c0.958 1 1.458 2.333 1.5 4 0 1.333-0.229 2.438-0.687 3.313s-1.271 1.604-2.438 2.187c-0.792 0.375-1.833 0.604-3.125 0.688 0.583 0.292 1.010 0.594 1.281 0.906s0.448 0.802 0.531 1.469v1.969l0.062 1.906c0.125 0.208 0.271 0.385 0.438 0.531s0.313 0.25 0.438 0.313c0.125 0.063 0.167 0.156 0.125 0.281s-0.208 0.188-0.5 0.188c-0.708 0-1.271-0.25-1.688-0.75-0.125-0.208-0.188-0.458-0.188-0.75v-3c0-0.333-0.083-0.573-0.25-0.719s-0.333-0.24-0.5-0.281v3.938c0 0.708 0.083 1.167 0.25 1.375s0.271 0.417 0.313 0.625c0.042 0.042 0.010 0.073-0.094 0.094s-0.281-0.010-0.531-0.094c-0.542-0.125-0.917-0.406-1.125-0.844s-0.313-0.906-0.313-1.406v-3.875h-0.813v3.875c0 0.5-0.104 0.979-0.313 1.438-0.292 0.583-0.833 0.896-1.625 0.938-0.125-0.042-0.188-0.083-0.188-0.125 0.042-0.042 0.167-0.25 0.375-0.625 0.042-0.083 0.094-0.25 0.156-0.5s0.094-0.542 0.094-0.875v-3.938c-0.167 0.042-0.323 0.135-0.469 0.281s-0.219 0.385-0.219 0.719v3c0 0.292-0.063 0.542-0.188 0.75-0.375 0.5-0.938 0.75-1.687 0.75-0.292 0-0.458-0.063-0.5-0.188-0.042-0.083-0.031-0.156 0.031-0.219s0.156-0.135 0.281-0.219c0.125-0.083 0.208-0.146 0.25-0.188 0.167-0.125 0.292-0.292 0.375-0.5 0.125-0.167 0.156-0.604 0.094-1.313s-0.073-1.167-0.031-1.375c-1.083 0.375-2.188 0.187-3.313-0.563-0.333-0.333-0.667-0.813-1-1.438-0.25-0.458-0.75-1-1.5-1.625z"></path>
</symbol>
<symbol id="icon-circle-up" viewBox="0 0 32 32">
<path d="M0 16c0 8.836 7.164 16 16 16s16-7.164 16-16-7.164-16-16-16-16 7.164-16 16zM29 16c0 7.18-5.82 13-13 13s-13-5.82-13-13 5.82-13 13-13 13 5.82 13 13z"></path>
<path d="M22.086 20.914l2.828-2.828-8.914-8.914-8.914 8.914 2.828 2.828 6.086-6.086z"></path>
</symbol>
<symbol id="icon-moon" viewBox="0 0 32 32">
<path d="M21.866 21.447c-3.117 3.12-8.193 3.12-11.313 0s-3.12-8.195 0-11.314c0.826-0.824 1.832-1.453 2.989-1.863 0.365-0.128 0.768-0.035 1.039 0.237 0.274 0.273 0.366 0.677 0.237 1.039-0.784 2.211-0.25 4.604 1.391 6.245 1.638 1.639 4.031 2.172 6.245 1.391 0.362-0.129 0.767-0.036 1.039 0.237 0.273 0.271 0.365 0.676 0.236 1.039-0.408 1.157-1.038 2.164-1.863 2.989zM11.967 11.547c-2.34 2.34-2.34 6.147 0 8.486 2.5 2.501 6.758 2.276 8.937-0.51-2.247 0.141-4.461-0.671-6.109-2.318s-2.458-3.861-2.318-6.108c-0.18 0.141-0.35 0.29-0.51 0.451z"></path>
</symbol>
<symbol id="icon-sun" viewBox="0 0 24 24">
<path d="M18 12c0-1.657-0.673-3.158-1.757-4.243s-2.586-1.757-4.243-1.757-3.158 0.673-4.243 1.757-1.757 2.586-1.757 4.243 0.673 3.158 1.757 4.243 2.586 1.757 4.243 1.757 3.158-0.673 4.243-1.757 1.757-2.586 1.757-4.243zM16 12c0 1.105-0.447 2.103-1.172 2.828s-1.723 1.172-2.828 1.172-2.103-0.447-2.828-1.172-1.172-1.723-1.172-2.828 0.447-2.103 1.172-2.828 1.723-1.172 2.828-1.172 2.103 0.447 2.828 1.172 1.172 1.723 1.172 2.828zM11 1v2c0 0.552 0.448 1 1 1s1-0.448 1-1v-2c0-0.552-0.448-1-1-1s-1 0.448-1 1zM11 21v2c0 0.552 0.448 1 1 1s1-0.448 1-1v-2c0-0.552-0.448-1-1-1s-1 0.448-1 1zM3.513 4.927l1.42 1.42c0.391 0.391 1.024 0.391 1.414 0s0.391-1.024 0-1.414l-1.42-1.42c-0.391-0.391-1.024-0.391-1.414 0s-0.391 1.024 0 1.414zM17.653 19.067l1.42 1.42c0.391 0.391 1.024 0.391 1.414 0s0.391-1.024 0-1.414l-1.42-1.42c-0.391-0.391-1.024-0.391-1.414 0s-0.391 1.024 0 1.414zM1 13h2c0.552 0 1-0.448 1-1s-0.448-1-1-1h-2c-0.552 0-1 0.448-1 1s0.448 1 1 1zM21 13h2c0.552 0 1-0.448 1-1s-0.448-1-1-1h-2c-0.552 0-1 0.448-1 1s0.448 1 1 1zM4.927 20.487l1.42-1.42c0.391-0.391 0.391-1.024 0-1.414s-1.024-0.391-1.414 0l-1.42 1.42c-0.391 0.391-0.391 1.024 0 1.414s1.024 0.391 1.414 0zM19.067 6.347l1.42-1.42c0.391-0.391 0.391-1.024 0-1.414s-1.024-0.391-1.414 0l-1.42 1.42c-0.391 0.391-0.391 1.024 0 1.414s1.024 0.391 1.414 0z"></path>
</symbol>
</defs>
</svg>
