<svg aria-hidden="true" style="position: absolute; width: 0; height: 0; overflow: hidden;" version="1.1" xmlns="http://www.w3.org/2000/svg" xmlns:xlink="http://www.w3.org/1999/xlink">
<defs>
<symbol id="icon-user" viewBox="0 0 32 32">
<path d="M18 22.082v-1.649c2.203-1.241 4-4.337 4-7.432 0-4.971 0-9-6-9s-6 4.029-6 9c0 3.096 1.797 6.191 4 7.432v1.649c-6.784 0.555-12 3.888-12 7.918h28c0-4.030-5.216-7.364-12-7.918z"></path>
</symbol>
<symbol id="icon-user-check" viewBox="0 0 32 32">
<path d="M30 19l-9 9-3-3-2 2 5 5 11-11z"></path>
<path d="M14 24h10v-3.598c-2.101-1.225-4.885-2.066-8-2.321v-1.649c2.203-1.242 4-4.337 4-7.432 0-4.971 0-9-6-9s-6 4.029-6 9c0 3.096 1.797 6.191 4 7.432v1.649c-6.784 0.555-12 3.888-12 7.918h14v-2z"></path>
</symbol>
<symbol id="icon-watched" viewBox="0 0 32 32">
<path d="M22.16 8.28c-0.225-0.179-0.514-0.288-0.828-0.288-0.426 0-0.806 0.2-1.050 0.512l-0.002 0.003-9.333 12-4.573-5.573c-0.246-0.325-0.632-0.533-1.066-0.533-0.736 0-1.333 0.597-1.333 1.333 0 0.331 0.121 0.634 0.321 0.868l-0.002-0.002 5.56 6.907c0.246 0.302 0.619 0.493 1.035 0.493 0.002 0 0.003 0 0.005 0h-0c0.018 0.001 0.039 0.001 0.059 0.001 0.423 0 0.801-0.197 1.045-0.505l0.002-0.003 10.44-13.333c0.168-0.22 0.268-0.5 0.268-0.802 0-0.441-0.214-0.832-0.545-1.075l-0.004-0.003z"></path>
<path d="M28.827 8.28c-0.225-0.179-0.514-0.288-0.828-0.288-0.426 0-0.806 0.2-1.050 0.512l-0.002 0.003-9.333 12-0.813-1-1.68 2.16 1.467 1.827c0.246 0.302 0.619 0.493 1.035 0.493 0.002 0 0.003 0 0.005 0h-0c0.421-0.002 0.795-0.198 1.038-0.504l0.002-0.003 10.44-13.333c0.164-0.219 0.262-0.495 0.262-0.794 0-0.438-0.212-0.828-0.538-1.071l-0.004-0.003z"></path>
<path d="M11.613 17.413l1.72-2.16-0.267-0.32c-0.245-0.337-0.638-0.553-1.081-0.553-0.313 0-0.601 0.108-0.828 0.288l0.003-0.002c-0.305 0.246-0.498 0.62-0.498 1.039 0 0.32 0.113 0.613 0.3 0.843l-0.002-0.002z"></path>
</symbol>
<symbol id="icon-queue" viewBox="0 0 32 32">
<path d="M16 24.708c-3.598 0-7.471-1.407-11.2-4.070-2.787-1.99-4.508-3.962-4.579-4.045-0.294-0.34-0.294-0.845 0-1.185 0.072-0.083 1.792-2.055 4.579-4.045 3.729-2.662 7.601-4.070 11.2-4.070s7.471 1.407 11.2 4.070c2.787 1.99 4.508 3.962 4.579 4.045 0.295 0.34 0.295 0.845 0 1.185-0.072 0.083-1.792 2.055-4.579 4.045-3.728 2.663-7.601 4.070-11.2 4.070zM2.146 16c0.696 0.709 2.009 1.957 3.742 3.19 2.377 1.691 6.060 3.707 10.112 3.707s7.736-2.016 10.112-3.707c1.733-1.233 3.046-2.481 3.742-3.19-0.696-0.709-2.009-1.957-3.742-3.19-2.377-1.691-6.060-3.707-10.112-3.707s-7.736 2.016-10.112 3.707c-1.733 1.233-3.046 2.481-3.742 3.19z"></path>
<path d="M16 21.61c-3.094 0-5.61-2.517-5.61-5.61s2.517-5.61 5.61-5.61c1.361 0 2.673 0.493 3.695 1.389 0.376 0.329 0.414 0.901 0.084 1.277s-0.901 0.414-1.277 0.084c-0.692-0.607-1.581-0.941-2.503-0.941-2.096 0-3.801 1.705-3.801 3.801s1.705 3.801 3.801 3.801c2.096 0 3.801-1.705 3.801-3.801 0-0.5 0.405-0.905 0.905-0.905s0.905 0.405 0.905 0.905c0 3.093-2.517 5.61-5.61 5.61z"></path>
<path d="M16 17.81c-0.998 0-1.81-0.812-1.81-1.81s0.812-1.81 1.81-1.81c0.998 0 1.81 0.812 1.81 1.81s-0.812 1.81-1.81 1.81z"></path>
</symbol>
</defs>
</svg>
