<svg xmlns="http://www.w3.org/2000/svg" width="32" height="32"><path d="M21.866 21.447c-3.117 3.12-8.193 3.12-11.313 0s-3.12-8.195 0-11.314a7.952 7.952 0 0 1 2.989-1.863.998.998 0 0 1 1.039.237.995.995 0 0 1 .237 1.039c-.784 2.211-.25 4.604 1.391 6.245 1.638 1.639 4.031 2.172 6.245 1.391a.996.996 0 0 1 1.039.237.995.995 0 0 1 .236 1.039 7.907 7.907 0 0 1-1.863 2.989zm-9.899-9.9a6.007 6.007 0 0 0 0 8.486c2.5 2.501 6.758 2.276 8.937-.51-2.247.141-4.461-.671-6.109-2.318s-2.458-3.861-2.318-6.108c-.18.141-.35.29-.51.451z"/></svg>